P1
# Created by our program ! :O
10 10
1 1 1 0 0 0 0 1 1 1 
1 1 0 1 1 1 1 0 1 1 
1 0 1 1 1 1 1 1 0 1 
0 1 1 0 1 1 0 1 1 0 
0 1 1 1 1 1 1 1 1 0 
0 1 1 1 1 1 1 1 1 0 
0 1 1 0 1 1 0 1 1 0 
1 0 1 1 0 0 1 1 0 1 
1 1 0 1 1 1 1 0 1 1 
1 1 1 0 0 0 0 1 1 1 
